<svg width="48" height="49" viewBox="0 0 48 49" fill="none" xmlns="http://www.w3.org/2000/svg">
<path fill-rule="evenodd" clip-rule="evenodd" d="M10.5366 22.1C11.9203 22.1 13.2904 21.8207 14.5688 21.2779C15.8471 20.7351 17.0087 19.9396 17.9871 18.9368C18.9655 17.9339 19.7416 16.7433 20.2711 15.433C20.8006 14.1227 21.0732 12.7183 21.0732 11.3C21.0732 9.88172 20.8006 8.47734 20.2711 7.16702C19.7416 5.8567 18.9655 4.66612 17.9871 3.66325C17.0087 2.66037 15.8471 1.86485 14.5688 1.3221C13.2904 0.77935 11.9203 0.5 10.5366 0.5C7.74211 0.5 5.06209 1.63785 3.08609 3.66325C1.1101 5.68864 0 8.43566 0 11.3C0 14.1643 1.1101 16.9114 3.08609 18.9368C5.06209 20.9621 7.74211 22.1 10.5366 22.1ZM10.5366 4.44102C10.7906 4.44102 11.0343 4.54446 11.2139 4.72859C11.3935 4.91271 11.4945 5.16244 11.4945 5.42284V10.3182H16.2704C16.5244 10.3182 16.7681 10.4216 16.9477 10.6058C17.1274 10.7899 17.2283 11.0396 17.2283 11.3C17.2283 11.5604 17.1274 11.8101 16.9477 11.9943C16.7681 12.1784 16.5244 12.2818 16.2704 12.2818H11.4945V17.1772C11.4945 17.4376 11.3935 17.6873 11.2139 17.8714C11.0343 18.0555 10.7906 18.159 10.5366 18.159C10.2825 18.159 10.0389 18.0555 9.85927 17.8714C9.67963 17.6873 9.57871 17.4376 9.57871 17.1772V12.2818H4.80277C4.54872 12.2818 4.30509 12.1784 4.12545 11.9943C3.94581 11.8101 3.8449 11.5604 3.8449 11.3C3.8449 11.0396 3.94581 10.7899 4.12545 10.6058C4.30509 10.4216 4.54872 10.3182 4.80277 10.3182H9.57871V5.42284C9.57871 5.16244 9.67963 4.91271 9.85927 4.72859C10.0389 4.54446 10.2825 4.44102 10.5366 4.44102Z" fill="#226357"/>
<path fill-rule="evenodd" clip-rule="evenodd" d="M24.5854 7.0998C24.5854 6.10569 25.3716 5.2998 26.3415 5.2998H39.2195C44.0689 5.2998 48 9.32924 48 14.2998V39.4998C48 44.4704 44.0689 48.4998 39.2195 48.4998H15.8049C10.9556 48.4998 7.02441 44.4704 7.02441 39.4998V28.6998C7.02441 27.7057 7.81065 26.8998 8.78051 26.8998C9.75038 26.8998 10.5366 27.7057 10.5366 28.6998V39.4998C10.5366 42.4821 12.8953 44.8998 15.8049 44.8998H39.2195C42.1291 44.8998 44.4878 42.4821 44.4878 39.4998V14.2998C44.4878 11.3175 42.1291 8.8998 39.2195 8.8998H26.3415C25.3716 8.8998 24.5854 8.09392 24.5854 7.0998Z" fill="#90B1AB"/>
<path fill-rule="evenodd" clip-rule="evenodd" d="M41.561 37.6998C38.6514 37.6998 36.2927 40.1175 36.2927 43.0998V45.4998C36.2927 46.4939 35.5065 47.2998 34.5366 47.2998C33.5667 47.2998 32.7805 46.4939 32.7805 45.4998V43.0998C32.7805 38.1292 36.7117 34.0998 41.561 34.0998H45.0732C46.0431 34.0998 46.8293 34.9057 46.8293 35.8998C46.8293 36.8939 46.0431 37.6998 45.0732 37.6998H41.561Z" fill="#90B1AB"/>
<path fill-rule="evenodd" clip-rule="evenodd" d="M22.2439 20.2998C22.2439 19.3057 23.0302 18.4998 24 18.4998H35.7073C36.6772 18.4998 37.4634 19.3057 37.4634 20.2998C37.4634 21.2939 36.6772 22.0998 35.7073 22.0998H24C23.0302 22.0998 22.2439 21.2939 22.2439 20.2998Z" fill="#90B1AB"/>
<path fill-rule="evenodd" clip-rule="evenodd" d="M18.7317 29.8998C18.7317 28.9057 19.518 28.0998 20.4878 28.0998H32.1951C33.165 28.0998 33.9512 28.9057 33.9512 29.8998C33.9512 30.8939 33.165 31.6998 32.1951 31.6998H20.4878C19.518 31.6998 18.7317 30.8939 18.7317 29.8998Z" fill="#90B1AB"/>
</svg>
