<svg width="24" height="24" viewBox="0 0 24 24" fill="none" xmlns="http://www.w3.org/2000/svg">
<path d="M12 20.9999L10.55 19.6999C8.86667 18.1832 7.475 16.8749 6.375 15.7749C5.275 14.6749 4.4 13.6872 3.75 12.8119C3.1 11.9366 2.646 11.1326 2.388 10.3999C2.13 9.66724 2.00067 8.91724 2 8.1499C2 6.58324 2.525 5.2749 3.575 4.2249C4.625 3.1749 5.93333 2.6499 7.5 2.6499C8.36667 2.6499 9.19167 2.83324 9.975 3.1999C10.7583 3.56657 11.4333 4.08324 12 4.7499C12.5667 4.08324 13.2417 3.56657 14.025 3.1999C14.8083 2.83324 15.6333 2.6499 16.5 2.6499C18.0667 2.6499 19.375 3.1749 20.425 4.2249C21.475 5.2749 22 6.58324 22 8.1499C22 8.91657 21.871 9.66657 21.613 10.3999C21.355 11.1332 20.9007 11.9372 20.25 12.8119C19.5993 13.6866 18.7243 14.6742 17.625 15.7749C16.5257 16.8756 15.134 18.1839 13.45 19.6999L12 20.9999ZM12 18.2999C13.6 16.8666 14.9167 15.6376 15.95 14.6129C16.9833 13.5882 17.8 12.6966 18.4 11.9379C19 11.1792 19.4167 10.5039 19.65 9.9119C19.8833 9.3199 20 8.73257 20 8.1499C20 7.1499 19.6667 6.31657 19 5.6499C18.3333 4.98324 17.5 4.6499 16.5 4.6499C15.7167 4.6499 14.9917 4.87057 14.325 5.3119C13.6583 5.75324 13.2 6.3159 12.95 6.9999H11.05C10.8 6.31657 10.3417 5.75424 9.675 5.3129C9.00833 4.87157 8.28333 4.65057 7.5 4.6499C6.5 4.6499 5.66667 4.98324 5 5.6499C4.33333 6.31657 4 7.1499 4 8.1499C4 8.73324 4.11667 9.3209 4.35 9.9129C4.58333 10.5049 5 11.1799 5.6 11.9379C6.2 12.6959 7.01667 13.5876 8.05 14.6129C9.08333 15.6382 10.4 16.8672 12 18.2999Z" fill="black"/>
</svg>
