<svg width="18" height="18" viewBox="0 0 18 18" fill="none" xmlns="http://www.w3.org/2000/svg">
<path fill-rule="evenodd" clip-rule="evenodd" d="M18 8.99998C18 11.3869 17.0517 13.6761 15.3639 15.3639C13.6761 17.0517 11.3869 18 8.99998 18C6.61303 18 4.32385 17.0517 2.63603 15.3639C0.948209 13.6761 0 11.3869 0 8.99998C0 6.61303 0.948209 4.32385 2.63603 2.63603C4.32385 0.948209 6.61303 0 8.99998 0C11.3869 0 13.6761 0.948209 15.3639 2.63603C17.0517 4.32385 18 6.61303 18 8.99998ZM13.5 8.99998C13.5 10.1934 13.0259 11.338 12.1819 12.1819C11.338 13.0259 10.1934 13.5 8.99998 13.5C7.80651 13.5 6.66192 13.0259 5.81801 12.1819C4.97409 11.338 4.49999 10.1934 4.49999 8.99998C4.49999 7.80651 4.97409 6.66192 5.81801 5.818C6.66192 4.97409 7.80651 4.49999 8.99998 4.49999C10.1934 4.49999 11.338 4.97409 12.1819 5.818C13.0259 6.66192 13.5 7.80651 13.5 8.99998Z" fill="#226357"/>
</svg>
