<svg width="24" height="24" viewBox="0 0 24 24" fill="none" xmlns="http://www.w3.org/2000/svg">
<path d="M10.718 4C8.553 4 7.01 4.656 5.901 5.76C4.82 6.838 4.224 8.274 3.795 9.692L3.097 12.002H0.75C0.551088 12.002 0.360322 12.081 0.21967 12.2217C0.0790175 12.3623 0 12.5531 0 12.752C0 14.095 0.763 15.235 1.872 15.852L1.284 17.284C1.16127 17.5827 1.11392 17.9069 1.14611 18.2282C1.1783 18.5495 1.28905 18.8579 1.46859 19.1263C1.64814 19.3947 1.89095 19.6147 2.17563 19.7671C2.46031 19.9195 2.77811 19.9995 3.101 20H5.295C6.057 20 6.75 19.559 7.074 18.87L7.78 17.366C9.75 17.639 11.749 17.642 13.72 17.376L14.421 18.869C14.5799 19.2067 14.8315 19.4922 15.1465 19.6925C15.4614 19.8927 15.8268 19.9994 16.2 20H18.372C18.6952 20.0002 19.0134 19.9207 19.2985 19.7685C19.5835 19.6163 19.8267 19.3962 20.0064 19.1276C20.1861 18.859 20.2968 18.5503 20.3286 18.2287C20.3605 17.9071 20.3125 17.5826 20.189 17.284L19.661 16H21.998C23.01 16 23.998 15.217 23.998 14.114V13C23.998 11.295 22.518 10.003 20.816 10.003H17.866L17.773 9.693C17.34 8.261 16.709 6.827 15.594 5.753C14.455 4.654 12.884 4 10.718 4ZM19.228 14.5L18.321 11.502H20.816C21.801 11.502 22.498 12.23 22.498 12.999V14.113C22.498 14.249 22.328 14.499 21.998 14.499L19.228 14.5ZM15.253 17.113C16.2396 16.9069 17.2109 16.6333 18.16 16.294L18.802 17.854C18.8311 17.9249 18.8424 18.0018 18.8349 18.0781C18.8274 18.1543 18.8012 18.2275 18.7588 18.2913C18.7163 18.3551 18.6588 18.4075 18.5914 18.4439C18.524 18.4803 18.4486 18.4995 18.372 18.5H16.2C16.1117 18.4994 16.0254 18.4739 15.951 18.4265C15.8765 18.3791 15.8169 18.3117 15.779 18.232L15.253 17.113ZM3.528 16.336C4.42333 16.65 5.33 16.904 6.248 17.098L5.716 18.232C5.67814 18.3115 5.61869 18.3788 5.54443 18.4262C5.47017 18.4736 5.38409 18.4992 5.296 18.5H3.1C3.0235 18.4995 2.9483 18.4802 2.88098 18.4439C2.81366 18.4075 2.75627 18.3553 2.71383 18.2916C2.6714 18.228 2.64522 18.1549 2.63757 18.0788C2.62993 18.0026 2.64107 17.9258 2.67 17.855L3.303 16.315C3.377 16.3243 3.45167 16.3313 3.527 16.336M2.643 13.501L2.372 14.398C2.05464 14.1703 1.80564 13.8601 1.652 13.501H2.643Z" fill="black"/>
</svg>
