<svg width="19" height="24" viewBox="0 0 19 24" fill="none" xmlns="http://www.w3.org/2000/svg">
<path d="M0.955308 15.1238C0.741165 14.5904 3.38419 12.3529 4.82048 11.25L5.95195 13.4127L7.01898 15.2607C6.96816 15.1727 1.22299 15.7906 0.955308 15.1238Z" fill="#FFD53C"/>
<path fill-rule="evenodd" clip-rule="evenodd" d="M18.7576 13.905V8.25405L17.2448 5.62462C17.2281 5.59512 17.2109 5.56583 17.194 5.53639C14.5349 0.914718 9.62828 -1.23802 6.23465 0.728111C2.84103 2.69424 2.24555 8.03472 4.90461 12.6564C4.92155 12.6858 4.93859 12.7152 4.95571 12.7444L11.4311 24C15.684 22.6155 18.7576 18.6191 18.7576 13.905ZM13.9592 7.56988C14.8829 9.1753 14.3347 11.2281 12.7349 12.155C11.135 13.0819 9.08928 12.5319 8.16561 10.9264C7.24193 9.32102 7.79008 7.26818 9.38993 6.34129C10.9898 5.4144 13.0355 5.96446 13.9592 7.56988Z" fill="#FE6A15"/>
<path d="M13.9592 7.56988C14.8829 9.1753 14.3347 11.2281 12.7349 12.155C11.135 13.0819 9.08928 12.5319 8.16561 10.9264C7.24193 9.32102 7.79008 7.26818 9.38993 6.34129C10.9898 5.4144 13.0355 5.96446 13.9592 7.56988Z" fill="white"/>
<ellipse cx="1.21946" cy="1.21937" rx="1.21946" ry="1.21937" transform="matrix(0.866058 -0.499944 0.500056 0.865993 9.24268 8.71973)" fill="black"/>
</svg>
