<svg width="43" height="44" viewBox="0 0 43 44" fill="none" xmlns="http://www.w3.org/2000/svg">
<path fill-rule="evenodd" clip-rule="evenodd" d="M21.4634 44C24.282 44 27.073 43.4309 29.6771 42.3253C32.2812 41.2197 34.6473 39.5992 36.6403 37.5563C38.6334 35.5135 40.2144 33.0882 41.293 30.419C42.3717 27.7499 42.9268 24.8891 42.9268 22C42.9268 19.1109 42.3717 16.2501 41.293 13.581C40.2144 10.9118 38.6334 8.48654 36.6403 6.44365C34.6473 4.40076 32.2812 2.78025 29.6771 1.67465C27.073 0.569047 24.282 -4.30507e-08 21.4634 0C15.771 8.69447e-08 10.3117 2.31785 6.28649 6.44365C2.26132 10.5694 0 16.1652 0 22C0 27.8348 2.26132 33.4305 6.28649 37.5563C10.3117 41.6821 15.771 44 21.4634 44ZM21.4634 8.028C21.9809 8.028 22.4772 8.23871 22.8431 8.61378C23.2091 8.98886 23.4146 9.49756 23.4146 10.028V20H33.1434C33.6609 20 34.1572 20.2107 34.5231 20.5858C34.8891 20.9609 35.0946 21.4696 35.0946 22C35.0946 22.5304 34.8891 23.0391 34.5231 23.4142C34.1572 23.7893 33.6609 24 33.1434 24H23.4146V33.972C23.4146 34.5024 23.2091 35.0111 22.8431 35.3862C22.4772 35.7613 21.9809 35.972 21.4634 35.972C20.9459 35.972 20.4496 35.7613 20.0837 35.3862C19.7178 35.0111 19.5122 34.5024 19.5122 33.972V24H9.78341C9.26592 24 8.76962 23.7893 8.40369 23.4142C8.03777 23.0391 7.83219 22.5304 7.83219 22C7.83219 21.4696 8.03777 20.9609 8.40369 20.5858C8.76962 20.2107 9.26592 20 9.78341 20H19.5122V10.028C19.5122 9.49756 19.7178 8.98886 20.0837 8.61378C20.4496 8.23871 20.9459 8.028 21.4634 8.028Z" fill="#226357"/>
</svg>
