<svg width="22" height="22" viewBox="0 0 22 22" fill="none" xmlns="http://www.w3.org/2000/svg">
<path fill-rule="evenodd" clip-rule="evenodd" d="M11 22C12.4445 22 13.8749 21.7155 15.2095 21.1627C16.5441 20.6099 17.7567 19.7996 18.7782 18.7782C19.7996 17.7567 20.6099 16.5441 21.1627 15.2095C21.7155 13.8749 22 12.4445 22 11C22 9.55546 21.7155 8.12506 21.1627 6.79048C20.6099 5.4559 19.7996 4.24327 18.7782 3.22183C17.7567 2.20038 16.5441 1.39013 15.2095 0.837325C13.8749 0.284523 12.4445 -2.15253e-08 11 0C8.08262 4.34724e-08 5.28473 1.15893 3.22183 3.22183C1.15893 5.28473 0 8.08262 0 11C0 13.9174 1.15893 16.7153 3.22183 18.7782C5.28473 20.8411 8.08262 22 11 22ZM11 4.014C11.2652 4.014 11.5196 4.11936 11.7071 4.30689C11.8946 4.49443 12 4.74878 12 5.014V10H16.986C17.2512 10 17.5056 10.1054 17.6931 10.2929C17.8806 10.4804 17.986 10.7348 17.986 11C17.986 11.2652 17.8806 11.5196 17.6931 11.7071C17.5056 11.8946 17.2512 12 16.986 12H12V16.986C12 17.2512 11.8946 17.5056 11.7071 17.6931C11.5196 17.8806 11.2652 17.986 11 17.986C10.7348 17.986 10.4804 17.8806 10.2929 17.6931C10.1054 17.5056 10 17.2512 10 16.986V12H5.014C4.74878 12 4.49443 11.8946 4.30689 11.7071C4.11936 11.5196 4.014 11.2652 4.014 11C4.014 10.7348 4.11936 10.4804 4.30689 10.2929C4.49443 10.1054 4.74878 10 5.014 10H10V5.014C10 4.74878 10.1054 4.49443 10.2929 4.30689C10.4804 4.11936 10.7348 4.014 11 4.014Z" fill="#FFF9F1"/>
</svg>
