<svg width="24" height="25" viewBox="0 0 24 25" fill="none" xmlns="http://www.w3.org/2000/svg">
<path fill-rule="evenodd" clip-rule="evenodd" d="M16.3637 9.22716C16.3637 10.3845 15.904 11.4944 15.0857 12.3127C14.2673 13.1311 13.1574 13.5908 12.0001 13.5908C10.8428 13.5908 9.73289 13.1311 8.91455 12.3127C8.09621 11.4944 7.63647 10.3845 7.63647 9.22716C7.63647 8.06985 8.09621 6.95995 8.91455 6.1416C9.73289 5.32326 10.8428 4.86353 12.0001 4.86353C13.1574 4.86353 14.2673 5.32326 15.0857 6.1416C15.904 6.95995 16.3637 8.06985 16.3637 9.22716ZM14.1819 9.22716C14.1819 9.80582 13.9521 10.3608 13.5429 10.7699C13.1337 11.1791 12.5788 11.409 12.0001 11.409C11.4215 11.409 10.8665 11.1791 10.4573 10.7699C10.0482 10.3608 9.81829 9.80582 9.81829 9.22716C9.81829 8.64851 10.0482 8.09355 10.4573 7.68438C10.8665 7.27521 11.4215 7.04534 12.0001 7.04534C12.5788 7.04534 13.1337 7.27521 13.5429 7.68438C13.9521 8.09355 14.1819 8.64851 14.1819 9.22716Z" fill="#226357"/>
<path fill-rule="evenodd" clip-rule="evenodd" d="M12 0.5C5.37273 0.5 0 5.87273 0 12.5C0 19.1273 5.37273 24.5 12 24.5C18.6273 24.5 24 19.1273 24 12.5C24 5.87273 18.6273 0.5 12 0.5ZM2.18182 12.5C2.18182 14.78 2.95964 16.8789 4.26327 18.5458C5.17903 17.3438 6.36017 16.3696 7.71452 15.6993C9.06886 15.0291 10.5598 14.6808 12.0709 14.6818C13.5626 14.6801 15.035 15.019 16.3758 15.6728C17.7166 16.3265 18.8904 17.2779 19.8076 18.4542C20.7529 17.2145 21.3893 15.7675 21.6642 14.233C21.9392 12.6985 21.8448 11.1206 21.3889 9.6298C20.933 8.13902 20.1286 6.77823 19.0423 5.66004C17.9561 4.54185 16.6192 3.69839 15.1422 3.19946C13.6653 2.70054 12.0908 2.56048 10.5489 2.79088C9.00711 3.02128 7.54232 3.61552 6.27575 4.52442C5.00918 5.43333 3.97725 6.63077 3.26534 8.01767C2.55343 9.40457 2.18202 10.9411 2.18182 12.5ZM12 22.3182C9.74608 22.3218 7.56016 21.5464 5.81236 20.1233C6.51579 19.1159 7.45221 18.2935 8.5419 17.726C9.63159 17.1584 10.8423 16.8626 12.0709 16.8636C13.2842 16.8626 14.4802 17.151 15.5596 17.7051C16.639 18.2591 17.5706 19.0627 18.2771 20.0491C16.5158 21.5185 14.2938 22.3218 12 22.3182Z" fill="#226357"/>
</svg>
