<svg width="16" height="20" viewBox="0 0 16 20" fill="none" xmlns="http://www.w3.org/2000/svg">
<path d="M15.9053 6.43875C15.9053 7.59734 15.6278 8.66097 15.0728 9.62963C14.5179 10.5793 13.6656 11.3485 12.5161 11.9373C11.3666 12.5261 9.93955 12.8205 8.23506 12.8205H5.08374V20H0V0H8.23506C9.89991 0 11.3071 0.275403 12.4566 0.82621C13.6062 1.37702 14.4683 2.13675 15.0431 3.10541C15.6179 4.07407 15.9053 5.18518 15.9053 6.43875ZM7.84858 8.94587C8.81974 8.94587 9.54316 8.72745 10.0188 8.2906C10.4945 7.85375 10.7323 7.23647 10.7323 6.43875C10.7323 5.64103 10.4945 5.02374 10.0188 4.58689C9.54316 4.15005 8.81974 3.93162 7.84858 3.93162H5.08374V8.94587H7.84858Z" fill="#226357"/>
</svg>
