<svg width="71" height="21" viewBox="0 0 71 21" fill="none" xmlns="http://www.w3.org/2000/svg">
<path d="M8.72161 8.736C8.72161 9.30533 8.58525 9.828 8.31255 10.304C8.03985 10.7707 7.62106 11.1487 7.05617 11.438C6.49129 11.7273 5.79006 11.872 4.95247 11.872H3.40391V15.4H0.905762V5.572H4.95247C5.77058 5.572 6.46207 5.70733 7.02696 5.978C7.59184 6.24866 8.0155 6.622 8.29794 7.098C8.58038 7.574 8.72161 8.12 8.72161 8.736ZM4.76255 9.968C5.23978 9.968 5.59527 9.86067 5.82901 9.646C6.06276 9.43133 6.17963 9.128 6.17963 8.736C6.17963 8.344 6.06276 8.04067 5.82901 7.826C5.59527 7.61133 5.23978 7.504 4.76255 7.504H3.40391V9.968H4.76255Z" fill="#226357"/>
<path d="M11.5119 6.776C11.0736 6.776 10.7132 6.65466 10.4308 6.412C10.1581 6.16 10.0217 5.852 10.0217 5.488C10.0217 5.11466 10.1581 4.80666 10.4308 4.564C10.7132 4.312 11.0736 4.186 11.5119 4.186C11.9404 4.186 12.291 4.312 12.5637 4.564C12.8461 4.80666 12.9874 5.11466 12.9874 5.488C12.9874 5.852 12.8461 6.16 12.5637 6.412C12.291 6.65466 11.9404 6.776 11.5119 6.776ZM12.7536 7.588V15.4H10.2555V7.588H12.7536Z" fill="#FFD53C"/>
<path d="M19.6199 15.4L17.1363 12.124V15.4H14.6382V5.04H17.1363V10.766L19.6053 7.588H22.6878L19.2985 11.508L22.717 15.4H19.6199Z" fill="#90ADC6"/>
<path d="M23.1992 11.48C23.1992 10.6773 23.355 9.97266 23.6667 9.366C23.9881 8.75933 24.4215 8.29267 24.9669 7.966C25.5123 7.63933 26.121 7.476 26.793 7.476C27.3677 7.476 27.8692 7.588 28.2978 7.812C28.7361 8.036 29.0721 8.33 29.3058 8.694V7.588H31.804V15.4H29.3058V14.294C29.0623 14.658 28.7214 14.952 28.2832 15.176C27.8546 15.4 27.3531 15.512 26.7784 15.512C26.1162 15.512 25.5123 15.3487 24.9669 15.022C24.4215 14.686 23.9881 14.2147 23.6667 13.608C23.355 12.992 23.1992 12.2827 23.1992 11.48ZM29.3058 11.494C29.3058 10.8967 29.1305 10.4253 28.7799 10.08C28.439 9.73467 28.0202 9.562 27.5235 9.562C27.0268 9.562 26.6031 9.73467 26.2525 10.08C25.9116 10.416 25.7412 10.8827 25.7412 11.48C25.7412 12.0773 25.9116 12.5533 26.2525 12.908C26.6031 13.2533 27.0268 13.426 27.5235 13.426C28.0202 13.426 28.439 13.2533 28.7799 12.908C29.1305 12.5627 29.3058 12.0913 29.3058 11.494Z" fill="#07437B"/>
<path d="M36.1283 8.694C36.362 8.33 36.698 8.036 37.1363 7.812C37.5746 7.588 38.0761 7.476 38.641 7.476C39.313 7.476 39.9218 7.63933 40.4672 7.966C41.0126 8.29267 41.4411 8.75933 41.7528 9.366C42.0742 9.97267 42.2349 10.6773 42.2349 11.48C42.2349 12.2827 42.0742 12.992 41.7528 13.608C41.4411 14.2147 41.0126 14.686 40.4672 15.022C39.9218 15.3487 39.313 15.512 38.641 15.512C38.0664 15.512 37.5648 15.4047 37.1363 15.19C36.7078 14.966 36.3718 14.672 36.1283 14.308V15.4H33.6301V5.04H36.1283V8.694ZM39.6929 11.48C39.6929 10.8827 39.5176 10.416 39.167 10.08C38.8261 9.73467 38.4024 9.562 37.896 9.562C37.3993 9.562 36.9756 9.73467 36.625 10.08C36.2841 10.4253 36.1137 10.8967 36.1137 11.494C36.1137 12.0913 36.2841 12.5627 36.625 12.908C36.9756 13.2533 37.3993 13.426 37.896 13.426C38.3927 13.426 38.8163 13.2533 39.167 12.908C39.5176 12.5533 39.6929 12.0773 39.6929 11.48Z" fill="#226357"/>
<path d="M47.2748 15.512C46.4762 15.512 45.7554 15.3487 45.1127 15.022C44.4796 14.6953 43.978 14.2287 43.6079 13.622C43.2476 13.0153 43.0674 12.306 43.0674 11.494C43.0674 10.6913 43.2524 9.98667 43.6225 9.38C43.9926 8.764 44.4991 8.29267 45.1419 7.966C45.7847 7.63933 46.5054 7.476 47.304 7.476C48.1026 7.476 48.8234 7.63933 49.4661 7.966C50.1089 8.29267 50.6154 8.764 50.9855 9.38C51.3556 9.98667 51.5406 10.6913 51.5406 11.494C51.5406 12.2967 51.3507 13.006 50.9709 13.622C50.6008 14.2287 50.0895 14.6953 49.4369 15.022C48.7941 15.3487 48.0734 15.512 47.2748 15.512ZM47.2748 13.44C47.752 13.44 48.1562 13.272 48.4873 12.936C48.8282 12.6 48.9987 12.1193 48.9987 11.494C48.9987 10.8687 48.8331 10.388 48.502 10.052C48.1806 9.716 47.7812 9.548 47.304 9.548C46.817 9.548 46.4129 9.716 46.0915 10.052C45.7701 10.3787 45.6094 10.8593 45.6094 11.494C45.6094 12.1193 45.7652 12.6 46.0768 12.936C46.3982 13.272 46.7976 13.44 47.2748 13.44Z" fill="#FE6A15"/>
<path d="M56.6246 15.512C55.826 15.512 55.1053 15.3487 54.4625 15.022C53.8294 14.6953 53.3279 14.2287 52.9578 13.622C52.5974 13.0153 52.4172 12.306 52.4172 11.494C52.4172 10.6913 52.6023 9.98667 52.9724 9.38C53.3425 8.764 53.8489 8.29267 54.4917 7.966C55.1345 7.63933 55.8552 7.476 56.6539 7.476C57.4525 7.476 58.1732 7.63933 58.816 7.966C59.4588 8.29267 59.9652 8.764 60.3353 9.38C60.7054 9.98667 60.8905 10.6913 60.8905 11.494C60.8905 12.2967 60.7006 13.006 60.3207 13.622C59.9506 14.2287 59.4393 14.6953 58.7868 15.022C58.144 15.3487 57.4233 15.512 56.6246 15.512ZM56.6246 13.44C57.1019 13.44 57.5061 13.272 57.8372 12.936C58.1781 12.6 58.3485 12.1193 58.3485 11.494C58.3485 10.8687 58.1829 10.388 57.8518 10.052C57.5304 9.716 57.1311 9.548 56.6539 9.548C56.1669 9.548 55.7627 9.716 55.4413 10.052C55.1199 10.3787 54.9592 10.8593 54.9592 11.494C54.9592 12.1193 55.115 12.6 55.4267 12.936C55.7481 13.272 56.1474 13.44 56.6246 13.44Z" fill="#FFD53C"/>
<path d="M67.8298 15.4L65.3463 12.124V15.4H62.8481V5.04H65.3463V10.766L67.8152 7.588H70.8977L67.5084 11.508L70.927 15.4H67.8298Z" fill="#07437B"/>
</svg>
