<svg width="24" height="24" viewBox="0 0 24 24" fill="none" xmlns="http://www.w3.org/2000/svg">
<path d="M3.34607 13.5036C2.99613 12.9207 2.81128 12.2535 2.81128 11.5736C2.81128 10.8937 2.99613 10.2266 3.34607 9.64363C3.45361 9.46415 3.59751 9.30915 3.76852 9.1886C3.93954 9.06804 4.13388 8.9846 4.33907 8.94363L6.03207 8.60463C6.13303 8.58464 6.22409 8.53064 6.29007 8.45163L8.35807 5.96863C9.54007 4.54863 10.1321 3.83963 10.6591 4.03063C11.1861 4.22163 11.1881 5.14563 11.1881 6.99363V16.1556C11.1881 18.0026 11.1881 18.9256 10.6601 19.1176C10.1331 19.3076 9.54107 18.5986 8.35907 17.1796L6.28807 14.6956C6.22235 14.6168 6.13167 14.5628 6.03107 14.5426L4.33807 14.2036C4.13288 14.1627 3.93854 14.0792 3.76752 13.9587C3.59651 13.8381 3.45361 13.6831 3.34607 13.5036Z" fill="black"/>
<path fill-rule="evenodd" clip-rule="evenodd" d="M17.138 5.20968C17.5285 4.81913 18.1616 4.8191 18.5522 5.2096C20.2316 6.88885 21.1792 9.16385 21.1885 11.5388C21.1978 13.9137 20.268 16.196 18.6017 17.8884C18.2142 18.2819 17.5811 18.2868 17.1875 17.8993C16.794 17.5118 16.7891 16.8787 17.1766 16.4851C18.4725 15.1689 19.1957 13.3938 19.1885 11.5466C19.1813 9.69942 18.4443 7.92998 17.1381 6.62389C16.7475 6.23339 16.7475 5.60023 17.138 5.20968ZM13.017 7.33066C13.4075 6.94012 14.0407 6.94011 14.4312 7.33063C15.5508 8.45022 16.1825 9.96699 16.1886 11.5504C16.1947 13.1337 15.5746 14.6553 14.4636 15.7834C14.0761 16.1769 13.4429 16.1818 13.0494 15.7942C12.6559 15.4067 12.6511 14.7736 13.0386 14.3801C13.7793 13.628 14.1927 12.6136 14.1886 11.558C14.1846 10.5024 13.7635 9.49126 13.017 8.74487C12.6265 8.35435 12.6265 7.72119 13.017 7.33066Z" fill="black"/>
</svg>
