<svg width="52" height="80" viewBox="0 0 52 80" fill="none" xmlns="http://www.w3.org/2000/svg">
<path fill-rule="evenodd" clip-rule="evenodd" d="M51.7164 46.3499V27.5135L46.6736 18.7487C46.618 18.6504 46.5609 18.5528 46.5044 18.4546C37.6409 3.04906 21.2853 -4.12674 9.97326 2.42704C-1.33882 8.98081 -3.32375 26.7824 5.53979 42.188C5.59626 42.2861 5.65303 42.3839 5.71011 42.4814L27.2948 80C41.471 75.385 51.7164 62.0637 51.7164 46.3499ZM35.7217 25.2329C38.8006 30.5843 36.9734 37.4272 31.6406 40.5168C26.3078 43.6064 19.4887 41.7729 16.4098 36.4215C13.3309 31.0701 15.158 24.2273 20.4908 21.1376C25.8237 18.048 32.6428 19.8815 35.7217 25.2329Z" fill="#FE6A15"/>
<path d="M35.7217 25.2329C38.8006 30.5843 36.9734 37.4272 31.6406 40.5168C26.3078 43.6064 19.4887 41.7729 16.4098 36.4215C13.3309 31.0701 15.158 24.2273 20.4908 21.1376C25.8237 18.048 32.6428 19.8815 35.7217 25.2329Z" fill="white"/>
</svg>
